<svg xmlns="http://www.w3.org/2000/svg" xmlns:xlink="http://www.w3.org/1999/xlink" width="65" height="65" viewBox="0 0 65 65">
  <defs>
    <linearGradient id="linear-gradient" x1="0.721" y1="0.135" x2="0.075" y2="1" gradientUnits="objectBoundingBox">
      <stop offset="0" stop-color="#00ffb9"/>
      <stop offset="1" stop-color="#00a4ff"/>
    </linearGradient>
    <linearGradient id="linear-gradient-2" x1="0.5" y1="0" x2="0.5" xlink:href="#linear-gradient"/>
  </defs>
  <g id="Grupo_23016" data-name="Grupo 23016" transform="translate(-1643.499 -12.365)">
    <path id="Caminho_11015" data-name="Caminho 11015" d="M28.955,8A10.478,10.478,0,1,0,39.433,18.478,10.475,10.475,0,0,0,28.955,8Zm0,26.194C21.975,34.194,8,37.691,8,44.672v5.239H49.911V44.672C49.911,37.691,35.936,34.194,28.955,34.194Z" transform="translate(1647.504 13.29)" fill="url(#linear-gradient)"/>
    <g id="Grupo_22520" data-name="Grupo 22520" transform="translate(1643.499 12.365)">
      <path id="Subtração_33" data-name="Subtração 33" d="M32.5,65A32.508,32.508,0,0,1,19.849,2.554a32.508,32.508,0,0,1,25.3,59.892A32.3,32.3,0,0,1,32.5,65Zm0-59.8A27.734,27.734,0,1,0,60.234,32.933,27.765,27.765,0,0,0,32.5,5.2Z" transform="translate(0 0)" fill="url(#linear-gradient-2)"/>
    </g>
  </g>
</svg>
