<svg xmlns="http://www.w3.org/2000/svg" xmlns:xlink="http://www.w3.org/1999/xlink" width="64.027" height="57.894" viewBox="0 0 64.027 57.894">
  <defs>
    <linearGradient id="linear-gradient" x1="0.5" x2="0.5" y2="1" gradientUnits="objectBoundingBox">
      <stop offset="0" stop-color="#00ffb9"/>
      <stop offset="1" stop-color="#00a4ff"/>
    </linearGradient>
  </defs>
  <g id="contato_icon" transform="translate(-140.433 -149.525)">
    <path id="Subtração_18" data-name="Subtração 18" d="M47.552,54.95H5.916A2.116,2.116,0,0,1,3.8,52.836v-5.91h4a1.945,1.945,0,1,0,0-3.891H1.945a1.945,1.945,0,0,1,0-3.89H3.8V15.8h4a1.945,1.945,0,1,0,0-3.89H1.945a1.945,1.945,0,0,1,0-3.891H3.8V2.113A2.116,2.116,0,0,1,5.916,0H47.552a2.116,2.116,0,0,1,2.113,2.113l.167,42.949a47.964,47.964,0,0,1-.7,5.381C48.756,52.5,48.178,54.95,47.552,54.95ZM26.971,26.419a11.183,11.183,0,0,0-4.532.952,11.6,11.6,0,0,0-3.7,2.6,12.131,12.131,0,0,0-2.5,3.854,12.475,12.475,0,0,0-.915,4.72,12.73,12.73,0,0,0,.224,2.38h22.84a12.733,12.733,0,0,0,.224-2.38,12.475,12.475,0,0,0-.915-4.72,12.126,12.126,0,0,0-2.495-3.854,11.61,11.61,0,0,0-3.7-2.6A11.183,11.183,0,0,0,26.971,26.419Zm0-14.823a6.747,6.747,0,0,0-6.9,6.56,6.747,6.747,0,0,0,6.9,6.56,6.746,6.746,0,0,0,6.9-6.56A6.746,6.746,0,0,0,26.972,11.6Z" transform="translate(140.433 149.525)" fill="url(#linear-gradient)"/>
    <path id="Caminho_10316" data-name="Caminho 10316" d="M3298.259,3794.262h0l8.153,7.121,11.681-13.247" transform="translate(-3119.278 -3597.965)" fill="none" stroke="#fff" stroke-linecap="round" stroke-linejoin="round" stroke-width="8"/>
    <path id="Caminho_10314" data-name="Caminho 10314" d="M3298.259,3794.262l8.153,7.121,11.681-13.247" transform="translate(-3119.278 -3597.965)" fill="none" stroke="#006dff" stroke-linecap="round" stroke-linejoin="round" stroke-width="5"/>
  </g>
</svg>
