<svg xmlns="http://www.w3.org/2000/svg" xmlns:xlink="http://www.w3.org/1999/xlink" width="64.05" height="88.595" viewBox="0 0 64.05 88.595">
  <defs>
    <linearGradient id="linear-gradient" x1="0.5" x2="0.5" y2="1" gradientUnits="objectBoundingBox">
      <stop offset="0" stop-color="#00ffb9"/>
      <stop offset="1" stop-color="#00a4ff"/>
    </linearGradient>
  </defs>
  <path id="descartador_icon" d="M12.4,88.6,7.053,54.77,0,49.774V23.4l9.137-3.235L16.3,29l7.272-8.837,25.16,8.889a5,5,0,0,1,2.214,6.077A4.8,4.8,0,0,1,45.5,38.373L29.251,32.917,20.268,88.6Zm43.862-.163H39.484L33.889,57.8H30.484V51.085H64.049V57.8H60.806l-4.54,30.631h0ZM49.5,71.253l0,.005-.276.465-.445.75-.684,1.155-.08.135c-.065.11-.132.223-.2.334a.062.062,0,0,0,0,.075c.037.06.073.121.108.181l.042.071.352.594.024.041.376.635.272.46.259.438.054.092.2.331,0,.006c0,.008.007.016.018.016l.01,0v-.781c0-.019,0-.038,0-.057v0c0-.044,0-.089,0-.134,0-.02,0-.041,0-.061a.851.851,0,0,1,0-.133.138.138,0,0,1,.047-.007h1.729a1.108,1.108,0,0,0,.214-.018.842.842,0,0,0,.595-.43l.124-.219.29-.509.007-.012.376-.661.392-.69.005-.01.2-.35.352-.62.128-.226A.248.248,0,0,0,54,72.09l.009-.021-.02.011-.024.014a1.773,1.773,0,0,1-.749.3,2.407,2.407,0,0,1-.4.029H49.561l-.02,0-.012,0c0-.057,0-.115,0-.171v-.064c0-.052,0-.1,0-.156v-.321c0-.024,0-.048,0-.072,0-.055,0-.113,0-.168,0-.025,0-.05,0-.075,0-.052,0-.106,0-.161A.041.041,0,0,0,49.5,71.253ZM46.774,75.86h.035l.019,0,.009,0,0-.007a.029.029,0,0,0,0-.011c0-1.014,0-2.132,0-3.417a.028.028,0,0,0,0-.011l0-.006-.005,0a.025.025,0,0,0-.011,0H43.167l-.012.02v0l-.021.037-.43.774a2.388,2.388,0,0,0-.122.24,2.458,2.458,0,0,0-.131.42,1.479,1.479,0,0,0,.035.841,1.625,1.625,0,0,0,.5.749,1.593,1.593,0,0,0,.6.322,1.676,1.676,0,0,0,.46.06h2.723Zm-6.741-7.933,0,0,0,0,.007.006h0a.1.1,0,0,0,.017.013l.395.226.161.092.023.013.358.2L41,68.5a.075.075,0,0,1,.037.031l-.007.014c-.005.011-.01.022-.016.033l-.156.277-.008.014-.1.179-.062.11-.564,1a1.1,1.1,0,0,0-.051.106.932.932,0,0,0-.058.215v0a.064.064,0,0,1-.023.049v.141c.018.008.02.024.023.04v0a.956.956,0,0,0,.121.329c.141.244.284.492.422.732h0l.134.232.264.458,0,0,.02.034.179.311.261.454.406.7.076.133.117.2,0,.007c0,.01.009.02.025.021,0,0,0-.007,0-.01a.221.221,0,0,0,0-.023,1.611,1.611,0,0,1,.025-.456,3.009,3.009,0,0,1,.139-.46,2.193,2.193,0,0,1,.146-.3c.1-.18.209-.363.31-.541l0,0,.067-.117.229-.4.229-.4.5-.865.062-.107,0,0,.2-.346.005-.01a.083.083,0,0,1,.03-.037l.008,0,.017.009.044.025.163.094.314.182h0l.012.007.232.135.164.095h0l.047.027h0a.025.025,0,0,0,.012,0,.019.019,0,0,0,.014-.008c-.515-.939-1.035-1.885-1.537-2.8l-.09-.163h-.038ZM52.9,67.157h0l-.029.016-.269.155-.021.012-.245.141-.282.162,0,0-.507.292-.574.331-.018.011-.595.343-.141.081h0l-.2.116L50,68.828c-.013.006-.027.013-.031.029v0a.019.019,0,0,0,0,.007L51.764,72l.018.029.007.011,0,0h0l0,0,.006,0h.979a2.27,2.27,0,0,0,.6-.079,1.423,1.423,0,0,0,.587-.322,1.812,1.812,0,0,0,.42-.565,1.467,1.467,0,0,0,.145-.481.1.1,0,0,1,.006-.023l0-.01v-.341a.141.141,0,0,1-.013-.061.263.263,0,0,0,0-.031,1.611,1.611,0,0,0-.185-.517c-.107-.188-.216-.379-.321-.563l-.112-.2-.4-.7-.006-.011-.159-.277-.065-.113-.329-.574,0-.008a.037.037,0,0,0-.03-.026Zm-8.331-4.2a1.468,1.468,0,0,0-.455.289,1.736,1.736,0,0,0-.325.42l-.551.961-.176.307-.012.02-.567.989-.056.1-.037.066,2.932,1.723.016.008.007,0,.006,0s.006,0,.007,0l1.793-3.128.009-.015c0-.009.009-.018.013-.027l.007-.016-.006-.011,0-.006-.019-.035-.251-.425-.022-.038-.225-.38a2.24,2.24,0,0,0-.3-.4,1.551,1.551,0,0,0-.767-.454,1.751,1.751,0,0,0-.368-.047h-.055A1.588,1.588,0,0,0,44.572,62.956Zm1.508-.245a.387.387,0,0,0,.041.024,1.79,1.79,0,0,1,.345.216,2.016,2.016,0,0,1,.479.563c.114.2.229.4.34.593v0l.1.168.5.877.007.012.132.232.195.342.008.014.383.673a.21.21,0,0,1,.011.024l.006.014-.013.009-.022.015-.291.167-.03.017-.321.184-.314.18,0,0c-.008,0-.015.008-.011.022h.063l1.408.019.2,0,.606.008.5.008.5.008h.024a.07.07,0,0,0,.036-.009l.007-.012.021-.036.045-.082,0,0,.074-.135.339-.613.015-.026.325-.587.417-.755.009-.016.215-.389v0l.146-.265,0,0c.005-.008.011-.017,0-.026l-.005,0-.01,0-.426.255-.007,0-.118.071-.1.063-.276.165-.01.007a.06.06,0,0,1-.035.014l-.012,0-.022-.037-.033-.057-.156-.269-.019-.033-.505-.869-.06-.1v0c-.05-.087-.1-.177-.154-.264a.778.778,0,0,0-.326-.3.982.982,0,0,0-.255-.08A.311.311,0,0,1,50,62.705l-.017-.005H46.062ZM8.447,8.5a8.5,8.5,0,1,1,8.5,8.5A8.5,8.5,0,0,1,8.447,8.5Z" transform="translate(0.001)" fill="url(#linear-gradient)"/>
</svg>
