<svg xmlns="http://www.w3.org/2000/svg" xmlns:xlink="http://www.w3.org/1999/xlink" width="125" height="125" viewBox="0 0 125 125">
  <defs>
    <linearGradient id="linear-gradient" x1="0.5" x2="0.5" y2="1" gradientUnits="objectBoundingBox">
      <stop offset="0" stop-color="#00ffb9"/>
      <stop offset="1" stop-color="#00a4ff"/>
    </linearGradient>
  </defs>
  <g id="eletronicos_icon" transform="translate(-204 -68)">
    <circle id="Elipse_43" data-name="Elipse 43" cx="62.5" cy="62.5" r="62.5" transform="translate(204 68)" fill="url(#linear-gradient)"/>
    <g id="Grupo_23014" data-name="Grupo 23014" transform="translate(223.898 88)">
      <rect id="Retângulo_1065" data-name="Retângulo 1065" width="26" height="26" rx="6" transform="translate(30.101 28)" fill="#fff"/>
      <path id="União_25" data-name="União 25" d="M29.374,21.01a4,4,0,0,1,2.779-3.775V10.6a5.545,5.545,0,0,1-.735-.243A5.453,5.453,0,0,1,29.683,9.22a5.265,5.265,0,0,1-1.17-1.681,5.154,5.154,0,0,1,0-4.117,5.265,5.265,0,0,1,1.17-1.681A5.453,5.453,0,0,1,31.417.608a5.638,5.638,0,0,1,4.249,0A5.453,5.453,0,0,1,37.4,1.741a5.265,5.265,0,0,1,1.17,1.681,5.154,5.154,0,0,1,0,4.117A5.265,5.265,0,0,1,37.4,9.22a5.453,5.453,0,0,1-1.735,1.133,5.543,5.543,0,0,1-.834.267v6.614a4,4,0,0,1,2.779,3.775,4.12,4.12,0,0,1-8.237,0ZM30.962,5.529a2.631,2.631,0,0,0,5.26,0,2.631,2.631,0,0,0-5.26,0ZM18.954,21.01a3.973,3.973,0,0,1,2.131-3.5,85.337,85.337,0,0,0-2.826-8.651c-1.155-2.6-6.8-2.317-7.51-2.272a5.144,5.144,0,0,1-.262.756,5.265,5.265,0,0,1-1.17,1.681,5.453,5.453,0,0,1-1.735,1.133,5.638,5.638,0,0,1-4.249,0A5.453,5.453,0,0,1,1.6,9.028,5.265,5.265,0,0,1,.429,7.347a5.154,5.154,0,0,1,0-4.117A5.265,5.265,0,0,1,1.6,1.549,5.453,5.453,0,0,1,3.334.416a5.638,5.638,0,0,1,4.249,0A5.453,5.453,0,0,1,9.317,1.549a5.265,5.265,0,0,1,1.17,1.681,5.141,5.141,0,0,1,.271.788c.781-.072,7.015-.559,9.1,2.036,1.851,2.306,3.442,8.882,3.924,11.024a4,4,0,1,1-4.825,3.932ZM2.878,5.337a2.593,2.593,0,0,0,2.63,2.548,2.593,2.593,0,0,0,2.63-2.548,2.593,2.593,0,0,0-2.63-2.548A2.593,2.593,0,0,0,2.878,5.337Z" transform="translate(15.101 0)" fill="#fff"/>
      <path id="União_22" data-name="União 22" d="M20.44,9.607a5.473,5.473,0,0,1-1.73-1.072,4.982,4.982,0,0,1-1.166-1.589,4.7,4.7,0,0,1-.25-.673H7.954A4.108,4.108,0,0,1,4.106,8.727,3.95,3.95,0,0,1,0,4.955,3.95,3.95,0,0,1,4.106,1.182,4.085,4.085,0,0,1,8.022,3.818h9.247a4.692,4.692,0,0,1,.275-.764A4.982,4.982,0,0,1,18.71,1.464,5.473,5.473,0,0,1,20.44.393a5.906,5.906,0,0,1,4.236,0,5.474,5.474,0,0,1,1.73,1.072,4.982,4.982,0,0,1,1.166,1.589,4.642,4.642,0,0,1,0,3.892,4.982,4.982,0,0,1-1.166,1.589,5.474,5.474,0,0,1-1.73,1.072,5.906,5.906,0,0,1-4.236,0Zm-.454-4.562a2.631,2.631,0,0,0,5.244,0,2.631,2.631,0,0,0-5.244,0Z" transform="translate(58.101 30)" fill="#fff"/>
      <path id="União_23" data-name="União 23" d="M20.44,12.577a5.428,5.428,0,0,1-1.73-1.152,5.355,5.355,0,0,1-1.166-1.709,5.286,5.286,0,0,1-.428-2.093,5.357,5.357,0,0,1,.071-.872L13.741,5.376H7.99A4.114,4.114,0,0,1,0,4.056a4.114,4.114,0,0,1,7.99-1.32h6.026l4.247,1.585a5.48,5.48,0,0,1,8.143-.5,5.355,5.355,0,0,1,1.166,1.709,5.334,5.334,0,0,1,0,4.185,5.355,5.355,0,0,1-1.166,1.709,5.5,5.5,0,0,1-5.966,1.152Zm-.454-4.9a2.622,2.622,0,1,0,2.622-2.59A2.609,2.609,0,0,0,19.986,7.673Z" transform="translate(58.101 42)" fill="#fff"/>
      <path id="União_27" data-name="União 27" d="M15.392,23.578a5.466,5.466,0,0,1-1.741-1.15,5.344,5.344,0,0,1-1.174-1.706,5.283,5.283,0,0,1,0-4.177,5.343,5.343,0,0,1,1.174-1.706,5.507,5.507,0,0,1,2.761-1.462V8.054a2.9,2.9,0,0,0-.943-2.2,3.412,3.412,0,0,0-2.181-.79H8.132a4.12,4.12,0,0,1-4,3.029A4.091,4.091,0,0,1,0,4.049,4.091,4.091,0,0,1,4.132,0,4.136,4.136,0,0,1,7.925,2.439h5.734s2.74.205,4,1.88a6.848,6.848,0,0,1,1.3,3.594v5.54a5.524,5.524,0,0,1,.7.238A5.467,5.467,0,0,1,21.4,14.84a5.343,5.343,0,0,1,1.174,1.706,5.284,5.284,0,0,1,0,4.177A5.344,5.344,0,0,1,21.4,22.428a5.466,5.466,0,0,1-1.741,1.15,5.6,5.6,0,0,1-4.263,0Zm-.457-4.9A2.639,2.639,0,1,0,17.574,16.1,2.615,2.615,0,0,0,14.935,18.683Z" transform="translate(44.101 56)" fill="#fff"/>
      <path id="União_28" data-name="União 28" d="M3.293,20.572A5.375,5.375,0,0,1,1.58,19.4a5.467,5.467,0,0,1,1.714-8.872A5.314,5.314,0,0,1,4.1,10.26V8.144A6.827,6.827,0,0,1,5.294,4.385C6.532,2.685,9.23,2.476,9.23,2.476H20.2A4.063,4.063,0,0,1,28,4.111a4.065,4.065,0,0,1-8.007,1.035H9.593a3.82,3.82,0,0,0-2.129.778,3.965,3.965,0,0,0-.946,1.939v2.36a5.3,5.3,0,0,1,.974.31A5.387,5.387,0,0,1,9.205,11.7a5.48,5.48,0,0,1,0,7.705,5.358,5.358,0,0,1-5.912,1.168ZM2.843,15.6a2.6,2.6,0,1,0,2.6-2.625A2.615,2.615,0,0,0,2.843,15.6Z" transform="translate(13.101 56)" fill="#fff"/>
      <path id="União_29" data-name="União 29" d="M3.271,41.578a5.375,5.375,0,0,1,.918-10.195L4.367,7.812s.2-2.688,1.876-3.922A6.646,6.646,0,0,1,9.939,2.7h8.209a4.054,4.054,0,1,1-.092,2.407H9.662a3.874,3.874,0,0,0-1.905.942,3.837,3.837,0,0,0-.764,2.122l.019,23.344q.217.071.429.161a5.371,5.371,0,1,1-4.169,9.9Zm-.447-4.9A2.581,2.581,0,1,0,5.4,34.088,2.587,2.587,0,0,0,2.824,36.677Z" transform="translate(0.101 42)" fill="#fff"/>
      <path id="União_26" data-name="União 26" d="M3.193,9.607A5.231,5.231,0,0,1,1.531,8.536,4.978,4.978,0,0,1,.411,6.946a4.815,4.815,0,0,1,0-3.892,4.978,4.978,0,0,1,1.12-1.589A5.231,5.231,0,0,1,3.193.393a5.467,5.467,0,0,1,4.07,0A5.231,5.231,0,0,1,8.925,1.464a4.978,4.978,0,0,1,1.12,1.589,4.816,4.816,0,0,1,.264.764h6.983a3.931,3.931,0,0,1,3.763-2.636A3.862,3.862,0,0,1,25,4.955a3.862,3.862,0,0,1-3.945,3.773,3.943,3.943,0,0,1-3.7-2.455H10.286a4.826,4.826,0,0,1-.24.673,4.978,4.978,0,0,1-1.12,1.589A5.231,5.231,0,0,1,7.263,9.607a5.467,5.467,0,0,1-4.07,0ZM2.757,5.045A2.469,2.469,0,0,0,5.276,7.455,2.469,2.469,0,0,0,7.795,5.045,2.469,2.469,0,0,0,5.276,2.636,2.469,2.469,0,0,0,2.757,5.045Z" transform="translate(1.101 30)" fill="#fff"/>
    </g>
  </g>
</svg>
