<svg xmlns="http://www.w3.org/2000/svg" xmlns:xlink="http://www.w3.org/1999/xlink" width="257.181" height="65" viewBox="0 0 257.181 65">
  <defs>
    <linearGradient id="linear-gradient" x1="0.5" x2="0.5" y2="1" gradientUnits="objectBoundingBox">
      <stop offset="0" stop-color="#00ffb9"/>
      <stop offset="1" stop-color="#00a4ff"/>
    </linearGradient>
  </defs>
  <g id="logo-prototipo_icon" transform="translate(-89 -494.503)">
    <text id="Logotipo" transform="translate(170.181 542.003)" fill="#00a4ff" font-size="40" font-family="Rubik" font-weight="500" letter-spacing="0.016em"><tspan x="0" y="0">Logotipo</tspan></text>
    <g id="Camada_x0020_1" transform="translate(-2924.05 -7636.328)">
      <g id="_2540417746720" transform="translate(3013.05 8130.832)">
        <path id="Caminho_11017" data-name="Caminho 11017" d="M3038.87,8189.822l.039.039S3038.857,8189.834,3038.87,8189.822Zm-.514-.128c.655,0,.212,0,.385.128C3038.063,8189.822,3038.55,8189.821,3038.357,8189.694Zm30.445-11.819c.111-.421-.05-.066.155-.368.174-.255.062-.206.23-.146.085.192.141-.034-.042.227C3069.007,8177.786,3068.954,8177.769,3068.8,8177.875Zm1.412-1.412c-.411-.276-.09-.212-.643-.258a9.934,9.934,0,0,1,1.283-3.084,12.147,12.147,0,0,1,1.8-2.7,21.8,21.8,0,0,1-1.723,4.571A4.929,4.929,0,0,0,3070.214,8176.463Zm-41.364-10.535.038.039S3028.837,8165.941,3028.85,8165.928Zm-.256-.257Zm44.7-.513.485-.542C3073.686,8165.111,3073.741,8165.025,3073.3,8165.158Zm-.9-2.569h.129v.642h-.129Zm-34.041,27.1a20.843,20.843,0,0,1-4.411-1.5c-.375-.175-.661-.249-.981-.432a33.116,33.116,0,0,1-4.659-2.92,28.262,28.262,0,0,1-7.027-7.874l-1.55-2.945a28.522,28.522,0,0,1-2.311-8.224c-.088-.808-.088-2.107-.256-2.827.861.414.512-.325.884.271.169.273.031.377.621.922.363.334.534.292.736.805.663,1.691.054,1.291,1.11,1.972.308.2.559.608.795.757.94.6.759-.983,1.2,1.619.189,1.11-.395,1.732-.329,2.632l.8,2.291c.238.423.433.456.771.771l2.436,2.959c.807.92.054.332,1.3,1.016,1.969,1.088,1.379.687,3.016,3.151l2.755,3.41c.509.5,1.013,1.087,1.547,1.534C3035.862,8187.981,3037.638,8189.07,3038.357,8189.694Zm-9.763-24.022c-2.114-.492-2.133.263-3.083-1.156-1.725.143-.926-.147-2.061.508-.025.015-.06.03-.084.045s-.057.032-.08.049c-.349.246-.366.5-.6.94-1.8-.421-1.439.333-1.408-1.666.02-1.239.005-1.887-1.289-2.188,0-1.23.435-1.24.514-2.185l.416.741c.37.41.247.461.5.651.427.316.256-.075.67.488.029.039.06.372.651.517a.815.815,0,0,0,.606-.049c.336-.163.265-.12.365-.547a39.485,39.485,0,0,0,4.5.513l.41,2.393C3028.706,8165.136,3028.594,8165.064,3028.594,8165.671Zm-5.525-4.5c.778.018.376-.083.515.258-.074-.035-.223-.089-.273-.114A.863.863,0,0,1,3023.069,8161.175Zm-.642-.128.039.039S3022.415,8161.06,3022.427,8161.046Zm45.859-7.835c.261.492.484.837,1.156.514v1.155c-.923-.442-.7-.085-1.285.129-.127-.09,0-.021-.244-.142a2.076,2.076,0,0,0-.266-.12l-1.177-.363a6.287,6.287,0,0,0-.882-.018,1.837,1.837,0,0,0-.385.771,13.206,13.206,0,0,0-1.168-.632c-.6-.219-1.061-.06-1.4-.524.734-.348.54.521,1.038-1.274.231-.829.375-.278.375-1.3a4.593,4.593,0,0,1,.741.673l1.38,1.445a4.154,4.154,0,0,0,1.218.324c.164-.341.118-.138.128-.642C3067.859,8153.353,3067.682,8153.225,3068.287,8153.211Zm-5.781.385.039.038S3062.494,8153.609,3062.506,8153.6Zm5.781-.385Zm-11.3-.257c.136-.137.487.2.142.068C3057.123,8153.019,3056.767,8153.169,3056.983,8152.954Zm.513-.128Zm4.882-.128Zm4.239-.386c.246.283.408.25,0,.386C3066.521,8152.5,3066.623,8152.547,3066.617,8152.312Zm-4.239.386-.128-.13Zm-.128-.13-.129-.128Zm-.9-1.926a6.456,6.456,0,0,1,1.414.9h-.9c0,.644,0,.522.256.9-.7-.188-.053-.323-.949-.2a11.37,11.37,0,0,1-1.233.2c-2.68.121-1.271.287-2.442.385l.741-.8-.246-.864c.81-.385.81-.02,1.046-1.033.676.158.352.158,1.028,0l.311,1.366c.216.617.66.389,1.1.175A2.876,2.876,0,0,0,3061.35,8150.642Zm0,0Zm-1.284-.514Zm6.552-.386c0-.482.085-.242.129-.769.264.176.334.384.642.384.622,0,.086-.448.772-.019a2.356,2.356,0,0,1,.77.662c-1.113-.26-.2-.457-1.549.016-.179.063-.178.149-.446.049C3066.806,8150.018,3066.617,8149.868,3066.617,8149.742Zm-33.142-1.925c.2-.747.574-.339.642-1.156h.9v.513c-.477.2-.218-.187-.782.109C3033.834,8147.492,3034.062,8147.659,3033.475,8147.816Zm27.1-3.211a3.431,3.431,0,0,1,.256-1.542c.634.148.883.531.9,1.285A1.566,1.566,0,0,0,3060.58,8144.6Zm-24.022-2.313Zm-5.652,1.67c-.952-1.8-.617-1.612,1.724-2.644.739-.326.262-.262.846-.311.14.527.095.385.771.385-.75,1.118-.986.6-1.519,1.436C3032.1,8143.809,3031.874,8143.45,3030.905,8143.962Zm5.652-1.67c-.052-.638-.44-.661-.771-1.156.5.012.309.026.7.46.283.315.323.175.587.568Zm-1.412-1.412c.249-.521-.03-.486.642-.643a2.294,2.294,0,0,1-.273.369C3035.328,8140.8,3035.439,8140.772,3035.145,8140.879Zm26.976-1.413.039.039S3062.108,8139.479,3062.121,8139.466Zm-25.691.642c.238-.354.368-.6.9-.642-.138.188.027-.02-.177.207l-.186.2C3036.611,8140.174,3037.039,8140.058,3036.429,8140.108Zm3.982-3.983c-.05-.6.137-.224-.257-.514a1.736,1.736,0,0,0-1.284,1.285c-.465-.34-.146-.109-.129-.9-.6.013-.773.041-.9.514-.893-.6-.334-.279-1.318-.2a3.314,3.314,0,0,0-1.805.283c-.336.182-.209.161-.512.26a7.066,7.066,0,0,0-1.868.7c-.74.5-.2.434-1.048.363.573-.783,3.993-2.042,4.962-2.362a32.376,32.376,0,0,1,6.175-1.4c.621-.086,1.552-.053,2.278-.164a10.134,10.134,0,0,1,2.383.079,24.329,24.329,0,0,1,9.981,2.351,16.116,16.116,0,0,1,3.256,1.754c.354.291.244.381.62.664.473.355.51.043.664.622-.282.116-.168.1-.58-.048l-2.5-.594a1.717,1.717,0,0,0-1.385,1.312c-.118.661.046,1.045-.371,1.557-.568.7-.033,1,.333,1.635.286.494.306.7,1.037.762-.147.7.067.281.128,1.027-.522.044-.622.371-1.028.642-.173-.649-.8-.88-1.192-1.377-.413-.531-.409-1.32-1.506-1.32-.488,0-.513.781-.513,1.285-1.227.286-1.035.7-.973,1.2.073.574-.27,1.23.744,1.038.572-.109.545-.2,1-.309a1.9,1.9,0,0,0-.258.643c.525.715.368.1.642,1.285a2.715,2.715,0,0,1,1.156.385v.642c-.31-.073-1.046-.2-1.328-.234-.948-.1-.391.169-1.112.362,0,.437.043.938.058,1.324.045,1.083-.317.761.165,1.792.3.639.314.61,1.19.61-.312.861-1.275.563-1.741,2.242-.327,1.181-1.415.777-2.031,1.949-.439.834-1.622,2.353-1.622,3.26,0,1.129,1.092.677-.385,3.468.287.431.248.118.365.662.128.6-.121.257.216.813.245.4.594.744.883,1.171a7.46,7.46,0,0,0,2.109,2c2.269,1.339.436.474,3.1.487,2.241.01,2.419-.512,3.6-.512.045.541.146.424.257.9,2.9,0,.411,1.211.922,2.531.7,1.813.867,1.751.5,3.647a4.315,4.315,0,0,1-.951,1.875c-.445.669-.732.715-.732,1.709s.236-.09-.229,1.569c-.177.628-.364,1.125-.515,1.669a11.5,11.5,0,0,1-1.44,2.928c.741.392.656.146,1.488-.053a6.921,6.921,0,0,0,2.981-1.387,5.683,5.683,0,0,0,1.217-.967c1.071-1.091,1.68-.989,2.277-1.962.717-1.166.526-1.069,2.186-2.182-.164.611-.6.9-1,1.315a9.121,9.121,0,0,0-1,1.444c-.215.859.526.166-.792,1.261a30.4,30.4,0,0,1-4,3.2c-.514.321-.99.617-1.525.915-.294.163-.469.226-.77.386a30.422,30.422,0,0,1-10.133,3.1c-.732.107-1.648.078-2.276.164a39.94,39.94,0,0,1-4.589-.221c.174-.652.706-1-.515-1.285-.336.227-.265.066-.385.515-.756-.177-.834-.678-1.346-1.1l-.982-.944c-.19-.189-.073-.165-.369-.273v-.513c.452-.121.385-.332.385-.771,0-.7-.429.079-.037-.79.822-1.821.407-1.475.037-3.064,1.788-.945,2.183-.639,2.183-3.21,0-.75-.241-1.108-.256-1.8.659-.153.859-.853,1.159-1.411a1.776,1.776,0,0,0,.322-.863c-.042-1.61-.566-1.567-1.781-2.179a4.57,4.57,0,0,0-2-.694,3.9,3.9,0,0,1-2.362-.848c-.6-.516.4.432-.135-.123l-2.057-2.31-1.748-.949c-1.066,0-.048.486-1.542-.515l.3-.73c.012-.028.028-.062.04-.089l.109-.276a1.308,1.308,0,0,0,.068-.574c-.293-.068-.376-.057-.663-.115-.493-.1-.376.175-.436-.348l-.087-1.58c-.061-.843.744-2.21-2.216-2.41-.155-.01.058.058-.247-.031l-.948-.237a2.3,2.3,0,0,1-1.073-.585c-.142-.273.179-.476-.5-1.116-.549.291-.222.206-.642.513l-1.676-1.162a1.041,1.041,0,0,0-1.665.777c-.762,0-1.1.116-1.67.128a7.524,7.524,0,0,0-.256,1.156h-.386a4.346,4.346,0,0,1,.169-2.914c.156-.454,1.028-2.1,1.5-2.1.6,0,.149.491,1.156.513l.144-.509a2.478,2.478,0,0,1,.755.125c-.263,3.483-.168,1.734.9,2.565.226.174-.123.26.64.26.551,0,.4-.665.291-.934-.155-.369-.112-.315-.548-.35.064-.278.138-.5.2-.826.695-3.625,3.072-2.1,3.266-4.44,1.065-.089.809-1.214,2.369-1.485,1.018-.178.629-.256,1.068-.859a2.79,2.79,0,0,1,1.317-.61c.049.6-.138.224.257.514a16.487,16.487,0,0,0,1.871-.7c.942-.373,1.211-.182,1.211-1.357l1.464.584c.582.032,1.409-.11,1.434-.836.008-.243.029-.043-.027-.289a1.324,1.324,0,0,0-.3-.617c.5-.134.44-.1.469-.579l.174-.833a1.926,1.926,0,0,0-.643-.257l.159-2.43c.017-.4-.072-.383.286-.585l.87-.538c.18-.129.115-.075.262-.116.43-.122.874-.454,1.377-.571-.022-.971-.385-.456-.385-1.027,0-.615.427-.068.089-.72-.181-.349-.355-.374-.474-.821a5.736,5.736,0,0,1,1.926-.771c.021.946.358.771,1.285.771-.179.769-.361.659,0,1.413a1.4,1.4,0,0,0-.983.558c-.165.261-.105.267-.178.594a2.438,2.438,0,0,0,.018,1.792c.415.818.541-.036.759.782,1.356,0,1.406-.583,2.082-1.259a2.514,2.514,0,0,1,1.313-.7l.767-.289c1.7-1.037,4.555-.136,3.675-3.914.511-.042.419-.052.642-.385-.139-.52-.282-.52-.789-.624-1.1-.223-.213-.078-.931-.612s-1.615-.194-2.517-.176c-.6.012-.852-.086-1.289.125-.623.305-.74.715-1.295.151l-.876-.674a.793.793,0,0,0-1.113.064,3.175,3.175,0,0,1-.576.453c-1.073.583-.589.5-1.147.907Zm-27.362,25.307c0,5.595.833,10.28,3,14.6.449.9.8,1.691,1.316,2.539.542.893.96,1.59,1.545,2.437a25.17,25.17,0,0,0,1.751,2.231l1.863,2.12c.391.391.654.515,1.034.892a12.163,12.163,0,0,0,1.018.91,31.785,31.785,0,0,0,20.079,7.668c5.595,0,10.28-.832,14.6-3a33.735,33.735,0,0,0,4.976-2.861l3.254-2.655c.4-.411.688-.551,1.1-.958a38.987,38.987,0,0,0,5.11-6.708,32.115,32.115,0,0,0,4.36-15.422c0-5.6-.833-10.28-3-14.6a30.813,30.813,0,0,0-4.612-7.208l-3.914-3.922a31.791,31.791,0,0,0-20.079-7.668c-5.6,0-10.28.833-14.6,3-.9.449-1.692.8-2.538,1.316-.893.542-1.591.96-2.437,1.546l-3.254,2.654c-.405.411-.688.55-1.1.958a39.031,39.031,0,0,0-5.11,6.709A32.11,32.11,0,0,0,3013.05,8161.433Z" transform="translate(-3013.05 -8129.832)" fill-rule="evenodd" fill="url(#linear-gradient)"/>
        <path id="Caminho_11018" data-name="Caminho 11018" d="M10154.5,10220.937c.064.78.13.208.294.771.184.628-.3.478,1.049.905a3.117,3.117,0,0,0,2.376-.676c-.143-1.7-2.1-1.143-2.146-1.143C10155.339,10220.794,10155.356,10220.524,10154.5,10220.937Z" transform="translate(-10119.009 -10209.066)" fill="#00ffb9" fill-rule="evenodd"/>
        <path id="Caminho_11019" data-name="Caminho 11019" d="M11130.8,9418.183c.066.795.238.517,1.326,1.25a1.223,1.223,0,0,0,1.05.28l.771-.529-.459-.686c-.214-.294-.176-.428-.6-.555A6.479,6.479,0,0,0,11130.8,9418.183Z" transform="translate(-11090.417 -9410.746)" fill="#00ffb9" fill-rule="evenodd"/>
        <path id="Caminho_11020" data-name="Caminho 11020" d="M12286.7,16199.924v.285c.295.2.483.449.922.357a.807.807,0,1,0-.635-1.357A.737.737,0,0,0,12286.7,16199.924Z" transform="translate(-12240.452 -16158.694)" fill="#00c4e6" fill-rule="evenodd"/>
      </g>
    </g>
  </g>
</svg>
