<svg xmlns="http://www.w3.org/2000/svg" xmlns:xlink="http://www.w3.org/1999/xlink" width="27.998" height="36.002" viewBox="0 0 27.998 36.002">
  <defs>
    <linearGradient id="linear-gradient" x1="0.5" x2="0.5" y2="1" gradientUnits="objectBoundingBox">
      <stop offset="0" stop-color="#00ffb9"/>
      <stop offset="1" stop-color="#00a4ff"/>
    </linearGradient>
  </defs>
  <g id="nova-solicitacao_icon2" transform="translate(-0.347 0.001)">
    <path id="União_37" data-name="União 37" d="M-6423.655-3536a2,2,0,0,1-2-2v-32a2,2,0,0,1,2-2l17.237.008v8.526a.981.981,0,0,0,.255.763,1,1,0,0,0,.735.326,1.114,1.114,0,0,0,.163-.011h7.608V-3538a2,2,0,0,1-2,2Zm5.046-17.5a1.4,1.4,0,0,0,1.4,1.4h4.2v4.2a1.4,1.4,0,0,0,1.4,1.4,1.4,1.4,0,0,0,1.4-1.4v-4.2h4.2a1.4,1.4,0,0,0,1.4-1.4,1.4,1.4,0,0,0-1.4-1.4h-4.2v-4.2a1.4,1.4,0,0,0-1.4-1.4,1.4,1.4,0,0,0-1.4,1.4v4.2h-4.2A1.4,1.4,0,0,0-6418.609-3553.5Zm13.23-10.671v-7.61l7.6,8.344h-6.815a.7.7,0,0,1-.109.009A.682.682,0,0,1-6405.379-3564.173Z" transform="translate(6426.001 3572.001)" fill="url(#linear-gradient)"/>
  </g>
</svg>
