<svg xmlns="http://www.w3.org/2000/svg" xmlns:xlink="http://www.w3.org/1999/xlink" width="125" height="125" viewBox="0 0 125 125">
  <defs>
    <linearGradient id="linear-gradient" x1="0.5" x2="0.5" y2="1" gradientUnits="objectBoundingBox">
      <stop offset="0" stop-color="#00ffb9"/>
      <stop offset="1" stop-color="#00a4ff"/>
    </linearGradient>
  </defs>
  <g id="responsabilidade-social_icon" transform="translate(-349 -68)">
    <circle id="Elipse_43" data-name="Elipse 43" cx="62.5" cy="62.5" r="62.5" transform="translate(349 68)" fill="url(#linear-gradient)"/>
    <rect id="Retângulo_1069" data-name="Retângulo 1069" width="15.217" height="22.825" rx="3" transform="translate(432.102 139.649)" fill="#fff"/>
    <path id="Caminho_11029" data-name="Caminho 11029" d="M3399.007,1561.693v17.132s-1.884,2.171-6.548,2.8-15.159,3.05-21.886,2.6c-4.9.343-28.615-15.432-28.615-15.432a3.58,3.58,0,0,1-.146-4.445c1.691-2.416,4.721-.753,4.721-.753l17.7,8.88a3.788,3.788,0,0,0,1.875.515s5.463-.1,8.947-.515c5.389-.641,6.188-1.345,6.188-1.345l-3.616-.357-12.575-.531a3.608,3.608,0,0,1-3.021-3.879c-.015-3.538,3.021-3.511,3.021-3.511s4.969.207,10.329.205c2.386,0,5.529.142,7.635-.532C3390.123,1560.565,3399.007,1561.693,3399.007,1561.693Z" transform="translate(-2969.012 -1419.407)" fill="#fff"/>
    <g id="Camada_x0020_1" transform="translate(384.745 89.088)">
      <g id="_2540417746720">
        <path id="Caminho_11017" data-name="Caminho 11017" d="M3032.481,8174.976l.029.03S3032.471,8174.985,3032.481,8174.976Zm-.387-.1c.493,0,.16,0,.29.1C3031.873,8174.976,3032.239,8174.975,3032.094,8174.88Zm22.91-8.894c.083-.317-.037-.051.116-.277.131-.19.047-.155.173-.109.064.146.106-.026-.031.171C3055.158,8165.919,3055.119,8165.906,3055,8165.986Zm1.063-1.063c-.309-.208-.068-.16-.484-.194a7.5,7.5,0,0,1,.966-2.321,9.122,9.122,0,0,1,1.355-2.027,16.431,16.431,0,0,1-1.3,3.439A3.7,3.7,0,0,0,3056.067,8164.923ZM3024.94,8157l.029.028S3024.93,8157.006,3024.94,8157Zm-.193-.193Zm33.64-.386.365-.408C3058.68,8156.381,3058.721,8156.316,3058.387,8156.417Zm-.677-1.935h.1v.483h-.1Zm-25.616,20.4a15.567,15.567,0,0,1-3.319-1.129c-.282-.131-.5-.187-.738-.324a24.934,24.934,0,0,1-3.506-2.2,21.278,21.278,0,0,1-5.288-5.925l-1.166-2.217a21.46,21.46,0,0,1-1.74-6.188c-.066-.609-.066-1.586-.193-2.127.648.311.385-.245.665.2.127.205.024.284.467.693.273.252.4.22.554.606.5,1.272.041.971.835,1.483.232.149.421.458.6.57.708.449.571-.739.906,1.218.142.835-.3,1.3-.248,1.98l.6,1.724c.179.319.326.344.58.582l1.833,2.226c.607.694.041.251.975.765,1.482.819,1.038.519,2.27,2.371l2.073,2.566c.383.379.763.817,1.165,1.153C3030.216,8173.592,3031.553,8174.41,3032.094,8174.88Zm-7.347-18.077c-1.591-.37-1.6.2-2.32-.87-1.3.106-.7-.111-1.551.381-.018.012-.044.023-.063.034s-.043.024-.06.037c-.263.186-.276.373-.453.708-1.356-.316-1.083.25-1.06-1.254.014-.932,0-1.421-.97-1.646,0-.925.327-.933.387-1.644l.313.557c.279.309.186.348.38.491.321.238.193-.057.5.366.021.029.045.279.489.389a.609.609,0,0,0,.456-.037c.253-.123.2-.091.275-.411a30.023,30.023,0,0,0,3.384.386l.308,1.8C3024.831,8156.4,3024.747,8156.346,3024.747,8156.8Zm-4.158-3.385c.586.014.283-.062.388.2-.056-.027-.168-.067-.206-.086A.614.614,0,0,1,3020.589,8153.418Zm-.482-.1.029.029S3020.1,8153.332,3020.107,8153.322Zm34.51-5.9c.2.371.364.631.87.387v.87c-.695-.333-.523-.064-.966.1-.1-.068,0-.016-.184-.106a1.416,1.416,0,0,0-.2-.091l-.886-.273a4.982,4.982,0,0,0-.664-.013,1.393,1.393,0,0,0-.29.58,9.85,9.85,0,0,0-.879-.476c-.449-.164-.8-.044-1.054-.395.552-.262.406.392.781-.958.174-.624.281-.21.281-.976a3.426,3.426,0,0,1,.558.506l1.039,1.088a3.165,3.165,0,0,0,.917.243c.124-.257.088-.1.1-.483C3054.295,8147.533,3054.161,8147.436,3054.617,8147.426Zm-4.35.289.029.029S3050.257,8147.725,3050.267,8147.715Zm4.35-.289Zm-8.506-.193c.1-.1.365.154.107.051C3046.216,8147.281,3045.948,8147.394,3046.111,8147.232Zm.386-.1Zm3.674-.1Zm3.19-.29c.185.213.307.188,0,.29C3053.288,8146.9,3053.365,8146.926,3053.36,8146.749Zm-3.19.29-.1-.1Zm-.1-.1-.1-.1Zm-.677-1.449a4.821,4.821,0,0,1,1.064.678h-.676c0,.483,0,.392.193.676-.528-.142-.04-.243-.714-.147a8.871,8.871,0,0,1-.928.147c-2.017.092-.957.216-1.838.291l.558-.6-.185-.649c.61-.291.61-.016.787-.778.509.119.265.119.774,0l.233,1.028c.163.464.5.292.83.131A2.166,2.166,0,0,0,3049.4,8145.492Zm0,0Zm-.966-.387Zm4.93-.291c0-.363.064-.182.1-.577.2.132.251.289.483.289.468,0,.065-.338.581-.015a1.78,1.78,0,0,1,.579.5c-.838-.2-.154-.344-1.166.012-.135.046-.133.11-.335.036C3053.5,8145.022,3053.36,8144.91,3053.36,8144.814Zm-24.939-1.448c.15-.562.432-.255.483-.871h.676v.387c-.359.149-.164-.142-.588.083C3028.69,8143.122,3028.862,8143.248,3028.42,8143.366Zm20.4-2.417a2.591,2.591,0,0,1,.193-1.161c.477.111.665.4.677.968A1.183,1.183,0,0,0,3048.817,8140.949Zm-18.076-1.74Zm-4.254,1.257c-.717-1.354-.465-1.214,1.3-1.99.556-.244.2-.2.637-.233.106.4.071.29.581.29-.565.841-.742.452-1.143,1.08C3027.386,8140.351,3027.216,8140.08,3026.486,8140.466Zm4.254-1.257c-.04-.48-.331-.5-.58-.871.375.009.233.021.524.347.213.237.244.132.442.428Zm-1.063-1.063c.188-.393-.022-.365.483-.483a1.762,1.762,0,0,1-.205.277C3029.815,8138.087,3029.9,8138.065,3029.677,8138.146Zm20.3-1.062.029.028S3049.967,8137.092,3049.977,8137.083Zm-19.333.482c.179-.266.277-.45.677-.482-.1.141.02-.016-.134.155l-.14.151C3030.78,8137.614,3031.1,8137.527,3030.643,8137.565Zm3-3c-.037-.448.1-.167-.193-.387a1.306,1.306,0,0,0-.966.968c-.351-.257-.11-.082-.1-.678-.451.01-.582.031-.677.388-.672-.451-.251-.21-.992-.146a2.462,2.462,0,0,0-1.358.213,1.426,1.426,0,0,1-.385.193,5.28,5.28,0,0,0-1.406.531c-.557.375-.149.325-.789.272.432-.59,3-1.536,3.734-1.778a24.382,24.382,0,0,1,4.646-1.055c.467-.066,1.168-.041,1.714-.124a7.639,7.639,0,0,1,1.793.059,18.323,18.323,0,0,1,7.51,1.771,12.077,12.077,0,0,1,2.45,1.32c.267.218.184.286.467.5.356.267.383.032.5.468-.213.086-.127.075-.437-.036l-1.883-.447a1.293,1.293,0,0,0-1.042.987c-.089.5.035.786-.279,1.172-.428.525-.025.756.251,1.229.215.372.23.529.78.574-.111.524.051.211.1.773-.394.033-.468.279-.774.483-.13-.489-.6-.663-.9-1.037-.311-.4-.308-.994-1.133-.994-.367,0-.386.588-.386.968-.923.215-.779.529-.732.9.054.433-.2.926.56.781.431-.082.41-.153.752-.232a1.435,1.435,0,0,0-.194.483c.395.539.277.078.483.967a2.042,2.042,0,0,1,.87.289v.483c-.233-.054-.787-.153-1-.176-.714-.074-.295.127-.837.273,0,.327.032.7.043,1,.034.814-.239.573.124,1.35.226.479.237.457.9.457-.234.648-.96.425-1.31,1.688-.246.889-1.065.584-1.528,1.466-.331.629-1.22,1.771-1.22,2.454,0,.849.821.509-.291,2.608.216.324.187.09.274.5.1.453-.091.193.162.612.185.3.448.558.665.88a5.613,5.613,0,0,0,1.587,1.508c1.708,1.009.328.357,2.335.365,1.686.009,1.82-.385,2.709-.385.034.407.11.319.194.679,2.185,0,.31.911.694,1.9.528,1.366.652,1.319.379,2.745a3.245,3.245,0,0,1-.715,1.411c-.335.5-.551.537-.551,1.285s.177-.066-.172,1.182c-.133.474-.274.848-.387,1.256a8.674,8.674,0,0,1-1.084,2.2c.557.295.494.11,1.12-.04a5.217,5.217,0,0,0,2.243-1.045,4.238,4.238,0,0,0,.916-.728c.805-.82,1.264-.744,1.713-1.476.539-.879.4-.806,1.645-1.643-.124.46-.454.675-.751.989a6.911,6.911,0,0,0-.751,1.087c-.161.646.4.124-.6.948a22.826,22.826,0,0,1-3.007,2.407c-.387.243-.745.466-1.147.69-.221.121-.354.168-.58.29a22.9,22.9,0,0,1-7.625,2.331c-.551.081-1.241.059-1.713.123a29.905,29.905,0,0,1-3.453-.166c.131-.49.532-.752-.387-.967-.253.17-.2.05-.29.388-.569-.134-.628-.51-1.013-.825l-.739-.71c-.143-.144-.055-.125-.278-.206v-.387c.341-.09.29-.249.29-.579,0-.527-.323.06-.028-.6.619-1.37.306-1.109.028-2.307,1.346-.71,1.643-.479,1.643-2.415,0-.563-.181-.833-.192-1.354.5-.115.646-.642.872-1.062a1.33,1.33,0,0,0,.242-.648c-.032-1.211-.427-1.179-1.34-1.64a3.427,3.427,0,0,0-1.508-.521,2.937,2.937,0,0,1-1.778-.64c-.455-.388.3.325-.1-.092l-1.548-1.738-1.315-.714c-.8,0-.035.364-1.16-.388l.224-.55c.009-.021.02-.046.029-.066l.083-.208a.988.988,0,0,0,.051-.432c-.22-.053-.282-.043-.5-.086-.371-.078-.283.131-.328-.264l-.066-1.188c-.046-.635.561-1.663-1.667-1.813-.117-.008.043.043-.186-.023l-.714-.178a1.724,1.724,0,0,1-.807-.441c-.107-.205.135-.357-.374-.839-.413.219-.167.155-.483.386l-1.261-.875a.784.784,0,0,0-1.253.586c-.574,0-.83.087-1.257.1a5.651,5.651,0,0,0-.193.87h-.291a3.267,3.267,0,0,1,.127-2.192c.117-.342.774-1.578,1.13-1.578.454,0,.112.37.87.387l.109-.382a1.848,1.848,0,0,1,.568.093c-.2,2.621-.127,1.3.678,1.931.17.131-.093.2.482.2.414,0,.3-.5.219-.7-.117-.278-.084-.237-.413-.264.049-.21.1-.374.152-.623.522-2.727,2.312-1.583,2.458-3.34.8-.067.609-.914,1.783-1.118.766-.135.473-.191.8-.646a2.1,2.1,0,0,1,.991-.46c.037.448-.1.17.194.388a12.483,12.483,0,0,0,1.408-.525c.708-.28.912-.138.912-1.022l1.1.44c.438.024,1.06-.083,1.079-.629.006-.183.022-.032-.02-.217a.992.992,0,0,0-.228-.464c.38-.1.331-.074.353-.436l.131-.628a1.451,1.451,0,0,0-.484-.194l.12-1.827c.012-.306-.054-.289.215-.441l.655-.4c.135-.1.087-.058.2-.088.323-.092.658-.341,1.036-.431-.017-.729-.29-.343-.29-.771,0-.464.322-.052.067-.543-.136-.262-.267-.281-.357-.617a4.3,4.3,0,0,1,1.449-.58c.016.712.27.58.967.58-.135.578-.271.5,0,1.063a1.058,1.058,0,0,0-.74.42c-.124.2-.079.2-.134.446a1.836,1.836,0,0,0,.013,1.349c.313.616.407-.027.572.588,1.02,0,1.058-.438,1.566-.947a1.9,1.9,0,0,1,.989-.529l.577-.217c1.277-.781,3.427-.1,2.765-2.945.385-.032.316-.04.483-.29-.1-.392-.212-.392-.594-.47-.83-.168-.16-.058-.7-.46s-1.215-.146-1.894-.134c-.448.011-.641-.064-.97.1-.469.229-.557.538-.974.113l-.66-.508a.6.6,0,0,0-.838.049,2.444,2.444,0,0,1-.433.34c-.807.439-.444.374-.863.683Zm-20.59,19.045a23.772,23.772,0,0,0,2.254,10.987c.338.676.6,1.273.99,1.91.408.672.723,1.2,1.162,1.834a19.125,19.125,0,0,0,1.318,1.68l1.4,1.594c.294.3.492.389.778.672a8.934,8.934,0,0,0,.766.685,24.51,24.51,0,0,0,26.1,3.517,25.256,25.256,0,0,0,3.744-2.153l2.449-2c.3-.31.518-.414.825-.722a29.256,29.256,0,0,0,3.846-5.048,24.16,24.16,0,0,0,3.281-11.6,23.761,23.761,0,0,0-2.254-10.988,23.252,23.252,0,0,0-3.47-5.424l-2.946-2.95a24.514,24.514,0,0,0-26.1-3.518c-.675.339-1.273.605-1.91.992-.672.405-1.2.72-1.834,1.162l-2.449,2c-.3.311-.518.414-.825.722a29.268,29.268,0,0,0-3.845,5.048A24.162,24.162,0,0,0,3013.05,8153.613Z" transform="translate(-3013.05 -8129.833)" fill="#fff" fill-rule="evenodd"/>
        <path id="Caminho_11018" data-name="Caminho 11018" d="M10154.5,10220.89c.052.621.1.164.233.613.146.5-.242.381.836.722a2.485,2.485,0,0,0,1.894-.538c-.114-1.356-1.676-.91-1.71-.91C10155.168,10220.776,10155.183,10220.562,10154.5,10220.89Z" transform="translate(-10127.887 -10211.964)" fill="#fff" fill-rule="evenodd"/>
        <path id="Caminho_11019" data-name="Caminho 11019" d="M11130.8,9418.13c.053.634.188.412,1.055.994a.976.976,0,0,0,.837.224l.615-.421-.367-.546c-.169-.234-.14-.34-.479-.441A5.09,5.09,0,0,0,11130.8,9418.13Z" transform="translate(-11100.503 -9412.206)" fill="#fff" fill-rule="evenodd"/>
        <path id="Caminho_11020" data-name="Caminho 11020" d="M12286.7,16199.723v.229c.234.158.385.359.734.285a.644.644,0,1,0-.5-1.084A.591.591,0,0,0,12286.7,16199.723Z" transform="translate(-12251.951 -16168.698)" fill="#fff" fill-rule="evenodd"/>
      </g>
    </g>
  </g>
</svg>
