<svg xmlns="http://www.w3.org/2000/svg" xmlns:xlink="http://www.w3.org/1999/xlink" width="64.995" height="65.001" viewBox="0 0 64.995 65.001">
  <defs>
    <linearGradient id="linear-gradient" x1="0.5" x2="0.5" y2="1" gradientUnits="objectBoundingBox">
      <stop offset="0" stop-color="#00ffb9"/>
      <stop offset="1" stop-color="#00a4ff"/>
    </linearGradient>
  </defs>
  <path id="sobre_icon" d="M-5950.148-3097.552a32.385,32.385,0,0,1-10.329-6.964,32.353,32.353,0,0,1-6.964-10.331A32.284,32.284,0,0,1-5970-3127.5a32.3,32.3,0,0,1,2.556-12.652,32.36,32.36,0,0,1,6.964-10.332,32.381,32.381,0,0,1,10.329-6.964A32.287,32.287,0,0,1-5937.5-3160a32.3,32.3,0,0,1,12.648,2.555,32.37,32.37,0,0,1,10.329,6.964,32.379,32.379,0,0,1,6.965,10.332A32.307,32.307,0,0,1-5905-3127.5a32.292,32.292,0,0,1-2.556,12.65,32.389,32.389,0,0,1-6.965,10.331,32.4,32.4,0,0,1-10.329,6.964A32.3,32.3,0,0,1-5937.5-3095,32.287,32.287,0,0,1-5950.148-3097.552Zm-14.115-29.944a26.792,26.792,0,0,0,26.762,26.763,26.793,26.793,0,0,0,26.764-26.763,26.8,26.8,0,0,0-26.764-26.767A26.793,26.793,0,0,0-5964.263-3127.5Zm22.941,16.192v-19.119a3.823,3.823,0,0,1,3.822-3.823,3.824,3.824,0,0,1,3.824,3.823v19.119a3.824,3.824,0,0,1-3.824,3.824A3.823,3.823,0,0,1-5941.322-3111.305Zm-.693-30.8a4.521,4.521,0,0,1,4.517-4.516,4.522,4.522,0,0,1,4.517,4.516,4.523,4.523,0,0,1-4.517,4.519A4.522,4.522,0,0,1-5942.015-3142.1Z" transform="translate(5969.997 3159.999)" fill="url(#linear-gradient)"/>
</svg>
