<svg xmlns="http://www.w3.org/2000/svg" xmlns:xlink="http://www.w3.org/1999/xlink" width="125" height="125" viewBox="0 0 125 125">
  <defs>
    <linearGradient id="linear-gradient" x1="0.5" x2="0.5" y2="1" gradientUnits="objectBoundingBox">
      <stop offset="0" stop-color="#00ffb9"/>
      <stop offset="1" stop-color="#00a4ff"/>
    </linearGradient>
  </defs>
  <g id="sustentabilidade_icon" transform="translate(-59 -68)">
    <circle id="Elipse_43" data-name="Elipse 43" cx="62.5" cy="62.5" r="62.5" transform="translate(59 68)" fill="url(#linear-gradient)"/>
    <path id="Caminho_11023" data-name="Caminho 11023" d="M580.644,216.655h55.386a7.209,7.209,0,0,0-1.307-2.124,6.4,6.4,0,0,0-1.634-1.144,8.467,8.467,0,0,0-4.084-4.9,7.851,7.851,0,0,0-3.431-.817,9.1,9.1,0,0,0-2.941-2.451,9.482,9.482,0,0,0-6.208-.817,7.019,7.019,0,0,0-3.921-2.287,6.942,6.942,0,0,0-3.758.327v-2.124a37.42,37.42,0,0,1,11.273-19.606,35.723,35.723,0,0,1,10.13-6.372,30.988,30.988,0,0,0-14.7,13.4,12.116,12.116,0,0,0,7.679.49c5.235-1.521,7.776-6.7,8.006-7.189.905-1.915,1.036-3.465,2.778-6.208a22.226,22.226,0,0,1,2.124-2.821c-10.368-3.028-19.573.222-22.22,6.089-.456,1.011-1.567,3.984,0,8.659-1.029,1.619-2.079,3.416-3.1,5.392-.947,1.824-1.757,3.577-2.451,5.228a74.51,74.51,0,0,1,.817-25,13.224,13.224,0,0,0,8.332-2.287c5.029-3.632,6.538-11.191,6.045-16.175a32.36,32.36,0,0,1-.327-8.006,27.754,27.754,0,0,1,.817-4.411,25.934,25.934,0,0,0-4.9,1.144c-2.013.683-14.454,5.181-15.848,15.358-.777,5.672,2.249,10.4,3.758,12.417a52.74,52.74,0,0,1,11.11-18.625,63.33,63.33,0,0,0-12.58,34.963,43.22,43.22,0,0,0-2.287-6.208c-.424-.925-.863-1.8-1.307-2.614.984-2.267,2.277-6.359.817-10.456-2.478-6.957-12.054-11.582-23.2-9.476a11.874,11.874,0,0,1,1.634,2.124,12.418,12.418,0,0,1,1.47,3.758,49.832,49.832,0,0,0,2.287,7.352c.2.447,2.89,6.2,8.822,7.679a12.371,12.371,0,0,0,6.372-.163,38.185,38.185,0,0,0-3.921-7.189,38.662,38.662,0,0,0-10.13-9.966,33.851,33.851,0,0,1,6.045,4.248c6.066,5.345,8.708,11.589,10.456,15.848a54.518,54.518,0,0,1,3.1,10.456q.408,5.718.817,11.437a9.067,9.067,0,0,0-8.006,1.144,8.792,8.792,0,0,0-5.718-.163,9.1,9.1,0,0,0-5.392,5.065,6.12,6.12,0,0,0-4.084,3.594,5.458,5.458,0,0,0-1.144.817A6.362,6.362,0,0,0,580.644,216.655Z" transform="translate(-486.907 -52.077)" fill="#f7fffa"/>
  </g>
</svg>
