<svg xmlns="http://www.w3.org/2000/svg" xmlns:xlink="http://www.w3.org/1999/xlink" width="67.551" height="60" viewBox="0 0 67.551 60">
  <defs>
    <linearGradient id="linear-gradient" x1="0.5" x2="0.5" y2="1" gradientUnits="objectBoundingBox">
      <stop offset="0" stop-color="#00ffb9"/>
      <stop offset="1" stop-color="#00a4ff"/>
    </linearGradient>
  </defs>
  <path id="historico_icon" d="M-5938.139-3100.608a29.358,29.358,0,0,1-5.575-1.749,29.583,29.583,0,0,1-5.045-2.766,29.909,29.909,0,0,1-4.4-3.664c-.048-.048-.1-.1-.146-.148a3.262,3.262,0,0,1-1.018-2.37,3.273,3.273,0,0,1,3.272-3.274,3.269,3.269,0,0,1,2.646,1.345,22.956,22.956,0,0,0,16.247,6.689A23.384,23.384,0,0,0-5908.9-3130a23.381,23.381,0,0,0-23.256-23.454A23.382,23.382,0,0,0-5955.409-3130c0,.575.021,1.146.062,1.716l3.575-3.971a2.977,2.977,0,0,1,4.2-.222,2.979,2.979,0,0,1,.22,4.2l-8.689,9.649a2.969,2.969,0,0,1-2.213.984h-.042a2.962,2.962,0,0,1-2.253-.984l-8.689-9.649a2.975,2.975,0,0,1,.22-4.2,2.976,2.976,0,0,1,4.2.222l2.978,3.305q-.018-.524-.018-1.05a30.507,30.507,0,0,1,.6-6.046,29.921,29.921,0,0,1,1.73-5.632,30.171,30.171,0,0,1,2.739-5.1,30.069,30.069,0,0,1,3.626-4.44,29.913,29.913,0,0,1,4.4-3.662,29.694,29.694,0,0,1,5.045-2.768,29.459,29.459,0,0,1,5.575-1.747,29.629,29.629,0,0,1,5.986-.61,29.628,29.628,0,0,1,5.986.61,29.426,29.426,0,0,1,5.575,1.747,29.8,29.8,0,0,1,5.046,2.768,29.931,29.931,0,0,1,4.4,3.662,30.106,30.106,0,0,1,3.627,4.44,30.171,30.171,0,0,1,2.739,5.1,30.139,30.139,0,0,1,1.731,5.632,30.543,30.543,0,0,1,.6,6.046,30.534,30.534,0,0,1-.6,6.046,30.111,30.111,0,0,1-1.731,5.632,30.115,30.115,0,0,1-2.739,5.1,30.092,30.092,0,0,1-3.627,4.439,30.019,30.019,0,0,1-4.4,3.664,29.689,29.689,0,0,1-5.046,2.766,29.325,29.325,0,0,1-5.575,1.749,29.75,29.75,0,0,1-5.986.608A29.751,29.751,0,0,1-5938.139-3100.608Zm14.778-18.691-11.221-6.742a3.02,3.02,0,0,1-1.465-2.562,3.02,3.02,0,0,1-.072-.652v-13.19a3.025,3.025,0,0,1,3.025-3.025,3.025,3.025,0,0,1,3.025,3.025v12.059l9.825,5.9a3.028,3.028,0,0,1,1.036,4.152,3.027,3.027,0,0,1-2.6,1.467A3.009,3.009,0,0,1-5923.36-3119.3Z" transform="translate(5970 3160)" fill="url(#linear-gradient)"/>
</svg>
